<?xml version="1.0" encoding="UTF-8" standalone="no"?>
<!-- Created with Inkscape (http://www.inkscape.org/) -->

<svg
   xmlns:osb="http://www.openswatchbook.org/uri/2009/osb"
   xmlns:dc="http://purl.org/dc/elements/1.1/"
   xmlns:cc="http://creativecommons.org/ns#"
   xmlns:rdf="http://www.w3.org/1999/02/22-rdf-syntax-ns#"
   xmlns:svg="http://www.w3.org/2000/svg"
   xmlns="http://www.w3.org/2000/svg"
   xmlns:sodipodi="http://sodipodi.sourceforge.net/DTD/sodipodi-0.dtd"
   xmlns:inkscape="http://www.inkscape.org/namespaces/inkscape"
   id="svg3355"
   version="1.1"
   inkscape:version="0.91 r13725"
   width="95"
   height="34"
   viewBox="0 0 95 34"
   sodipodi:docname="logo.svg">
  <metadata
     id="metadata3361">
    <rdf:RDF>
      <cc:Work
         rdf:about="">
        <dc:format>image/svg+xml</dc:format>
        <dc:type
           rdf:resource="http://purl.org/dc/dcmitype/StillImage" />
      </cc:Work>
    </rdf:RDF>
  </metadata>
  <defs
     id="defs3359">
    <linearGradient
       id="linearGradient6199"
       osb:paint="solid">
      <stop
         style="stop-color:#00a651;stop-opacity:1;"
         offset="0"
         id="stop6201" />
    </linearGradient>
    <filter
       inkscape:collect="always"
       style="color-interpolation-filters:sRGB"
       id="filter7459"
       x="-0.0021493729"
       width="1.0042987"
       y="-0.010256484"
       height="1.020513">
      <feGaussianBlur
         inkscape:collect="always"
         stdDeviation="0.32214749"
         id="feGaussianBlur7461" />
    </filter>
    <filter
       inkscape:collect="always"
       style="color-interpolation-filters:sRGB"
       id="filter7463"
       x="-0.0068437196"
       width="1.0136874"
       y="-0.011377733"
       height="1.0227555">
      <feGaussianBlur
         inkscape:collect="always"
         stdDeviation="0.32214749"
         id="feGaussianBlur7465" />
    </filter>
  </defs>
  <sodipodi:namedview
     pagecolor="#ffffff"
     bordercolor="#666666"
     borderopacity="1"
     objecttolerance="10"
     gridtolerance="10"
     guidetolerance="10"
     inkscape:pageopacity="0"
     inkscape:pageshadow="2"
     inkscape:window-width="1366"
     inkscape:window-height="744"
     id="namedview3357"
     showgrid="false"
     inkscape:zoom="4.5964105"
     inkscape:cx="57.281127"
     inkscape:cy="48.137233"
     inkscape:window-x="0"
     inkscape:window-y="24"
     inkscape:window-maximized="1"
     inkscape:current-layer="svg3355" />
  <g
     id="g3376"
     transform="matrix(0.25,0,0,0.26153846,615.32832,206.02546)"
     inkscape:export-xdpi="90"
     inkscape:export-ydpi="90">
    <g
       id="g6748"
       transform="matrix(1.0029313,0,0,0.99754451,-25.788431,-58.97004)">
      <g
         id="g7417"
         transform="translate(-689.6382,-877.99704)">
        <path
           style="opacity:1;fill:#00a651;fill-opacity:0.9372549;fill-rule:nonzero"
           d="m -1758.4469,58.480174 c -15.2894,-0.8623 -29.0547,-7.42675 -39.9226,-19.03859 -1.3137,-1.4036 -3.1051,-3.53325 -3.9809,-4.7326 -0.8758,-1.19935 -1.7971,-2.25891 -2.0473,-2.35456 -0.2502,-0.0957 -3.5604,-0.14899 -7.356,-0.11859 -6.5479,0.0525 -6.9502,0.0307 -7.863,-0.43555 -2.4534,-1.25204 -2.7479,-5.3444 -0.5059,-7.0303 l 0.7113,-0.53486 11.0327,-0.0203 c 13.1424,-0.0245 13.1445,-0.0249 14.348,-2.07853 0.8664,-1.47862 0.8614,-1.42687 0.3213,-3.30702 -0.369,-1.28469 -0.5327,-1.5261 -1.3459,-1.985 l -0.9259,-0.5224 -23.8118,-0.11989 c -23.6061,-0.1191 -23.8173,-0.1244 -24.4399,-0.61455 -0.3455,-0.27195 -0.8279,-0.77645 -1.072,-1.1212 -0.4773,-0.67395 -0.7559,-2.6459 -0.5161,-3.6531 0.231,-0.9702502 1.6666,-2.4931002 2.488,-2.6391502 0.3953,-0.0703 8.8567,-0.15431 18.8033,-0.18666 17.686,-0.0575 18.1021,-0.0695 18.8808,-0.5439 0.9093,-0.5541 1.8198,-2.23095 1.8198,-3.3518 0,-0.9848 -0.8703,-2.73165 -1.6657,-3.34323998 -0.6266,-0.48184 -0.9653,-0.4965 -14.2174,-0.61355 -12.2948,-0.10854 -13.6431,-0.1589 -14.2928,-0.5337 -1.6541,-0.95430002 -2.3292,-3.57630002 -1.4025,-5.44735002 0.6654,-1.3436 1.4556,-1.9529 2.8451,-2.19375 0.602,-0.10433 5.368,-0.1962 10.5912,-0.20406 l 9.4966,-0.0146 0.8809,-0.839 c 1.6045,-1.5280498 1.7621,-3.8498998 0.3788,-5.5826998 -0.3019,-0.37839 -0.9508,-0.8149 -1.4419,-0.97005 -0.6523,-0.20598 -5.8179,-0.28199 -19.1638,-0.28199 -18.0145,0 -18.2844,-0.007 -19.2439,-0.49665 -2.138,-1.09105 -2.7367,-4.24774 -1.1969,-6.31129 1.0818,-1.44985 -0.3663,-1.3724 25.2982,-1.35345 l 23.4752,0.0176 1.0237,-0.54425 c 1.828,-0.97181 2.5298,-3.32335 1.5891,-5.32461 -0.9396,-1.99895 -0.5094,-1.91885 -11.0294,-2.0541 -9.226,-0.1186 -9.3357,-0.12579 -10.1636,-0.6685 -0.9671,-0.63394 -1.7791,-2.2008 -1.7791,-3.43305 0,-1.068 0.841,-2.80405 1.6655,-3.43825 0.6145,-0.4727 1.0137,-0.49875 9.402,-0.61355 l 8.7602,-0.11991 0.4933,-0.7172 c 2.5135,-3.65404 7.2343,-8.86549 10.6162,-11.7194 8.2736,-6.98195 17.8128,-11.39917 28.5889,-13.23839 3.5447,-0.60499 11.5643,-0.72562 15.4283,-0.23206 7.6959,0.98299 13.9291,2.98758 20.5418,6.60621 3.2011,1.75169 7.8922,4.85787 10.168,6.73264 1.6603,1.36772 6.5418,6.62587 8.4398,9.09103 7.0256,9.12492 11.2834,19.33823 12.9464,31.05471 0.4918,3.4647498 0.6399,10.8118998 0.2341,11.6112498 -0.2086,0.41095002 -0.2326,0.81105002 -0.083,1.38291002 0.3581,1.36729998 -0.6934,8.24794998 -1.9721,12.90474018 -2.1984,8.00585 -5.8088,15.37526 -10.6949,21.82986 -9.7774,12.91609 -24.3589,21.38354 -39.8077,23.11629 -2.3619,0.2649 -7.3502,0.44135 -9.3267,0.32991 z m 14.6957,-20.52099 c 1.5811,-1.11345 1.5684,-1.0104 1.5688,-12.68526 10e-5,-5.7595 -0.062,-10.64255 -0.1378,-10.85114 -0.097,-0.26704 -0.4369,-0.37935 -1.1477,-0.37935 -1.8914,0 -2.8215,-1.92685 -1.568,-3.24826 l 0.5583,-0.5886 13.2611,0 c 14.6382,0 14.2105,0.042 15.2921,-1.5188402 0.4636,-0.66911 0.4702,-0.87111 0.4119,-12.70966 -0.066,-13.4128398 0.015,-12.7458998 -1.663,-13.6480498 -0.7213,-0.3877 -2.0163,-0.41934 -17.1847,-0.41965 -16.2515,-4.9e-4 -16.4104,-0.005 -17.0041,-0.49739 -0.7456,-0.61824 -0.8262,-2.03194 -0.165,-2.89364 0.4251,-0.55395 0.5277,-0.56775 4.7771,-0.6406 l 4.3426,-0.0744 0,-11.1399 0,-11.13991 -0.7785,-0.89575 -0.7786,-0.89575 -11.391,-0.0664 c -12.4541,-0.0726 -12.2762,-0.0905 -13.153,1.31956 -0.3659,0.58842 -0.41,1.76567 -0.514,13.72382 l -0.1137,13.08019 -12.438,0.1199 c -12.1825,0.11744 -12.4512,0.13024 -13.0801,0.62265 -1.2365,0.9682 -1.2151,0.714 -1.1538,13.7012398 l 0.057,12.04571 0.743,0.78385 c 0.7737,0.8162 1.0253,0.86325 6.1951,1.1587502 0.634,0.036 4.2033,0.0127 4.8908,-0.0326 0.3753,-0.0245 1.399,-0.0445 2.2748,-0.0445 0.8758,0 1.8995,-5e-5 2.2748,-10e-5 4.3355,0 10.0243,0.11778 10.1681,0.2115 0.1001,0.0653 0.1825,5.91265 0.1831,12.9941 0,12.4864 0.015,12.8993 0.4594,13.66825 0.8505,1.4706 0.8059,1.4655 12.9842,1.47585 l 11.056,0.009 0.773,-0.54435 z m -87.2616,-5.78165 c -2.2577,-0.5864 -3.3634,-1.937 -3.3634,-4.10845 0,-1.54215 0.5553,-2.65955 1.6598,-3.33956 1.125,-0.69264 4.8142,-0.84455 6.0079,-0.24746 1.5898,0.79534 2.5285,2.92814 2.0933,4.75619 -0.5256,2.20756 -3.6638,3.6493 -6.3976,2.93925 z m -38.3389,-48.64925 c -1.4143,-0.7518 -2.1169,-2.19174 -1.9531,-4.00259 0.1302,-1.43975 0.5873,-2.25036 1.732,-3.07166 0.7276,-0.52204 0.9268,-0.53954 6.1442,-0.53954 5.2178,0 5.4172,0.0176 6.1652,0.5415 0.4251,0.29785 1.0103,1.02625 1.3004,1.61869 0.9884,2.01826 0.2071,4.6508 -1.6431,5.53659 -0.8147,0.39001 -1.5471,0.44671 -5.8311,0.45131 -4.6339,0.005 -4.9545,-0.0242 -5.9145,-0.5343 z"
           id="path3384-3-2"
           inkscape:connector-curvature="0"
           sodipodi:nodetypes="ssssssscsssscssccsssssssssscccssssscsssssssccssssssscssssscscsscscscsccccccccssscscscssssccccscccssssssssssscsss" />
        <text
           xml:space="preserve"
           style="font-style:italic;font-variant:normal;font-weight:300;font-stretch:normal;font-size:78.19706726px;line-height:125%;font-family:Ubuntu;-inkscape-font-specification:'Ubuntu Light Italic';letter-spacing:0px;word-spacing:0px;fill:#337ab7;fill-opacity:1;stroke:none;stroke-width:1px;stroke-linecap:butt;stroke-linejoin:miter;stroke-opacity:1;filter:url(#filter7459)"
           x="-1693.4475"
           y="15.407193"
           id="text6744-7"
           sodipodi:linespacing="125%"><tspan
             sodipodi:role="line"
             id="tspan6746-4"
             x="-1693.4475"
             y="15.407193"
             style="font-style:italic;font-variant:normal;font-weight:300;font-stretch:normal;font-size:78.19706726px;font-family:Ubuntu;-inkscape-font-specification:'Ubuntu Light Italic';fill:#337ab7;fill-opacity:1">getdoctors </tspan></text>
        <text
           xml:space="preserve"
           style="font-style:italic;font-variant:normal;font-weight:300;font-stretch:normal;font-size:78.19706726px;line-height:125%;font-family:Ubuntu;-inkscape-font-specification:'Ubuntu Light Italic';letter-spacing:0px;word-spacing:0px;fill:#00a651;fill-opacity:0.9372549;stroke:none;stroke-width:1px;stroke-linecap:butt;stroke-linejoin:miter;stroke-opacity:1;filter:url(#filter7463)"
           x="-1693.439"
           y="15.389554"
           id="text6744-7-2"
           sodipodi:linespacing="125%"><tspan
             sodipodi:role="line"
             id="tspan6746-4-5"
             x="-1693.439"
             y="15.389554"
             style="font-style:italic;font-variant:normal;font-weight:300;font-stretch:normal;font-size:78.19706726px;font-family:Ubuntu;-inkscape-font-specification:'Ubuntu Light Italic';fill:#00a651;fill-opacity:0.9372549">get </tspan></text>
      </g>
    </g>
  </g>
</svg>
